<mxfile host="app.diagrams.net" modified="2024-06-06T15:52:52.588Z" agent="Mozilla/5.0 (Windows NT 10.0; Win64; x64) AppleWebKit/537.36 (KHTML, like Gecko) Chrome/125.0.0.0 Safari/537.36" etag="aeO9O5vpGBDE7pfBgJtc" version="24.4.15" type="device">
  <diagram name="Страница — 1" id="IjTaALP3ovbCfr8lIJQM">
    <mxGraphModel dx="1050" dy="522" grid="1" gridSize="10" guides="1" tooltips="1" connect="1" arrows="1" fold="1" page="1" pageScale="1" pageWidth="827" pageHeight="1169" math="0" shadow="0">
      <root>
        <mxCell id="0" />
        <mxCell id="1" parent="0" />
        <mxCell id="zh43RwkhiAS5RcaG3p8d-13" style="edgeStyle=orthogonalEdgeStyle;rounded=0;orthogonalLoop=1;jettySize=auto;html=1;" parent="1" source="zh43RwkhiAS5RcaG3p8d-1" target="zh43RwkhiAS5RcaG3p8d-2" edge="1">
          <mxGeometry relative="1" as="geometry" />
        </mxCell>
        <mxCell id="zh43RwkhiAS5RcaG3p8d-1" value="&lt;font style=&quot;font-size: 14px;&quot;&gt;main()&lt;/font&gt;" style="rounded=1;whiteSpace=wrap;html=1;arcSize=0;strokeWidth=1;" parent="1" vertex="1">
          <mxGeometry x="320" y="40" width="160" height="40" as="geometry" />
        </mxCell>
        <mxCell id="zh43RwkhiAS5RcaG3p8d-12" style="edgeStyle=orthogonalEdgeStyle;rounded=0;orthogonalLoop=1;jettySize=auto;html=1;entryX=0.5;entryY=0;entryDx=0;entryDy=0;" parent="1" source="zh43RwkhiAS5RcaG3p8d-2" target="zh43RwkhiAS5RcaG3p8d-3" edge="1">
          <mxGeometry relative="1" as="geometry" />
        </mxCell>
        <mxCell id="zh43RwkhiAS5RcaG3p8d-2" value="formula=input(&quot;Введите формулу(максимум 16 переменных)&quot;)" style="shape=process;whiteSpace=wrap;html=1;backgroundOutline=1;fontSize=14;" parent="1" vertex="1">
          <mxGeometry x="182" y="100" width="436" height="40" as="geometry" />
        </mxCell>
        <mxCell id="zh43RwkhiAS5RcaG3p8d-8" style="edgeStyle=orthogonalEdgeStyle;rounded=0;orthogonalLoop=1;jettySize=auto;html=1;entryX=0.5;entryY=0;entryDx=0;entryDy=0;" parent="1" source="zh43RwkhiAS5RcaG3p8d-3" target="zh43RwkhiAS5RcaG3p8d-6" edge="1">
          <mxGeometry relative="1" as="geometry" />
        </mxCell>
        <mxCell id="zh43RwkhiAS5RcaG3p8d-3" value="&lt;span style=&quot;font-size: 14px;&quot;&gt;check_input(formula)!=True&lt;/span&gt;" style="shape=loopLimit;whiteSpace=wrap;html=1;fontFamily=Helvetica;fontSize=11;fontColor=default;labelBackgroundColor=default;" parent="1" vertex="1">
          <mxGeometry x="280" y="160" width="240" height="40" as="geometry" />
        </mxCell>
        <mxCell id="zh43RwkhiAS5RcaG3p8d-15" style="edgeStyle=orthogonalEdgeStyle;rounded=0;orthogonalLoop=1;jettySize=auto;html=1;" parent="1" source="zh43RwkhiAS5RcaG3p8d-4" target="zh43RwkhiAS5RcaG3p8d-14" edge="1">
          <mxGeometry relative="1" as="geometry" />
        </mxCell>
        <mxCell id="zh43RwkhiAS5RcaG3p8d-4" value="check_input(formula)!=True" style="shape=loopLimit;whiteSpace=wrap;html=1;fontFamily=Helvetica;fontSize=14;fontColor=default;labelBackgroundColor=default;direction=west;" parent="1" vertex="1">
          <mxGeometry x="280" y="410" width="240" height="40" as="geometry" />
        </mxCell>
        <mxCell id="zh43RwkhiAS5RcaG3p8d-11" style="edgeStyle=orthogonalEdgeStyle;rounded=0;orthogonalLoop=1;jettySize=auto;html=1;entryX=0.5;entryY=1;entryDx=0;entryDy=0;" parent="1" source="zh43RwkhiAS5RcaG3p8d-5" target="zh43RwkhiAS5RcaG3p8d-4" edge="1">
          <mxGeometry relative="1" as="geometry" />
        </mxCell>
        <mxCell id="zh43RwkhiAS5RcaG3p8d-5" value="formula=input(&quot;Введите формулу(максимум 16 переменных)&quot;)" style="shape=process;whiteSpace=wrap;html=1;backgroundOutline=1;fontSize=14;" parent="1" vertex="1">
          <mxGeometry x="182" y="350" width="436" height="40" as="geometry" />
        </mxCell>
        <mxCell id="zh43RwkhiAS5RcaG3p8d-9" style="edgeStyle=orthogonalEdgeStyle;rounded=0;orthogonalLoop=1;jettySize=auto;html=1;entryX=0.5;entryY=0;entryDx=0;entryDy=0;" parent="1" source="zh43RwkhiAS5RcaG3p8d-6" target="zh43RwkhiAS5RcaG3p8d-7" edge="1">
          <mxGeometry relative="1" as="geometry" />
        </mxCell>
        <mxCell id="zh43RwkhiAS5RcaG3p8d-6" value="print(&quot;Неправильный ввод, попробуйте снова&quot;)" style="rounded=0;whiteSpace=wrap;html=1;fontSize=14;" parent="1" vertex="1">
          <mxGeometry x="240" y="230" width="320" height="40" as="geometry" />
        </mxCell>
        <mxCell id="zh43RwkhiAS5RcaG3p8d-10" style="edgeStyle=orthogonalEdgeStyle;rounded=0;orthogonalLoop=1;jettySize=auto;html=1;entryX=0.5;entryY=0;entryDx=0;entryDy=0;" parent="1" source="zh43RwkhiAS5RcaG3p8d-7" target="zh43RwkhiAS5RcaG3p8d-5" edge="1">
          <mxGeometry relative="1" as="geometry" />
        </mxCell>
        <mxCell id="zh43RwkhiAS5RcaG3p8d-7" value="print(&quot;_&quot; * 60)" style="rounded=0;whiteSpace=wrap;html=1;fontSize=14;" parent="1" vertex="1">
          <mxGeometry x="320" y="290" width="160" height="40" as="geometry" />
        </mxCell>
        <mxCell id="zh43RwkhiAS5RcaG3p8d-19" style="edgeStyle=orthogonalEdgeStyle;rounded=0;orthogonalLoop=1;jettySize=auto;html=1;entryX=0.5;entryY=0;entryDx=0;entryDy=0;" parent="1" source="zh43RwkhiAS5RcaG3p8d-14" target="zh43RwkhiAS5RcaG3p8d-16" edge="1">
          <mxGeometry relative="1" as="geometry" />
        </mxCell>
        <mxCell id="zh43RwkhiAS5RcaG3p8d-14" value="start = time.time()" style="rounded=0;whiteSpace=wrap;html=1;fontSize=14;" parent="1" vertex="1">
          <mxGeometry x="320" y="470" width="160" height="40" as="geometry" />
        </mxCell>
        <mxCell id="zh43RwkhiAS5RcaG3p8d-20" style="edgeStyle=orthogonalEdgeStyle;rounded=0;orthogonalLoop=1;jettySize=auto;html=1;entryX=0.5;entryY=0;entryDx=0;entryDy=0;" parent="1" source="zh43RwkhiAS5RcaG3p8d-16" target="zh43RwkhiAS5RcaG3p8d-18" edge="1">
          <mxGeometry relative="1" as="geometry" />
        </mxCell>
        <mxCell id="zh43RwkhiAS5RcaG3p8d-16" value="table, variables = true_table(formula)" style="shape=process;whiteSpace=wrap;html=1;backgroundOutline=1;fontSize=14;" parent="1" vertex="1">
          <mxGeometry x="275" y="530" width="250" height="40" as="geometry" />
        </mxCell>
        <mxCell id="zh43RwkhiAS5RcaG3p8d-22" style="edgeStyle=orthogonalEdgeStyle;rounded=0;orthogonalLoop=1;jettySize=auto;html=1;entryX=0.5;entryY=0;entryDx=0;entryDy=0;" parent="1" source="zh43RwkhiAS5RcaG3p8d-18" target="zh43RwkhiAS5RcaG3p8d-21" edge="1">
          <mxGeometry relative="1" as="geometry" />
        </mxCell>
        <mxCell id="zh43RwkhiAS5RcaG3p8d-18" value="print(&quot;\nПолученная СКНФ: + create_sknf(table, variables))" style="shape=process;whiteSpace=wrap;html=1;backgroundOutline=1;fontSize=14;" parent="1" vertex="1">
          <mxGeometry x="182" y="585" width="436" height="40" as="geometry" />
        </mxCell>
        <mxCell id="zh43RwkhiAS5RcaG3p8d-25" style="edgeStyle=orthogonalEdgeStyle;rounded=0;orthogonalLoop=1;jettySize=auto;html=1;entryX=0.5;entryY=0;entryDx=0;entryDy=0;" parent="1" source="zh43RwkhiAS5RcaG3p8d-21" target="zh43RwkhiAS5RcaG3p8d-24" edge="1">
          <mxGeometry relative="1" as="geometry" />
        </mxCell>
        <mxCell id="zh43RwkhiAS5RcaG3p8d-21" value="end = time.time() - start" style="rounded=0;whiteSpace=wrap;html=1;fontSize=14;" parent="1" vertex="1">
          <mxGeometry x="320" y="640" width="160" height="40" as="geometry" />
        </mxCell>
        <mxCell id="zh43RwkhiAS5RcaG3p8d-28" style="edgeStyle=orthogonalEdgeStyle;rounded=0;orthogonalLoop=1;jettySize=auto;html=1;entryX=1;entryY=0.5;entryDx=0;entryDy=0;" parent="1" source="zh43RwkhiAS5RcaG3p8d-23" target="zh43RwkhiAS5RcaG3p8d-1" edge="1">
          <mxGeometry relative="1" as="geometry">
            <mxPoint x="400" y="1080" as="targetPoint" />
            <Array as="points">
              <mxPoint x="400" y="820" />
              <mxPoint x="660" y="820" />
              <mxPoint x="660" y="60" />
            </Array>
          </mxGeometry>
        </mxCell>
        <mxCell id="zh43RwkhiAS5RcaG3p8d-23" value="print(&quot;_&quot; * 60)" style="rounded=0;whiteSpace=wrap;html=1;fontSize=14;" parent="1" vertex="1">
          <mxGeometry x="320" y="760" width="160" height="40" as="geometry" />
        </mxCell>
        <mxCell id="zh43RwkhiAS5RcaG3p8d-26" style="edgeStyle=orthogonalEdgeStyle;rounded=0;orthogonalLoop=1;jettySize=auto;html=1;entryX=0.5;entryY=0;entryDx=0;entryDy=0;" parent="1" source="zh43RwkhiAS5RcaG3p8d-24" target="zh43RwkhiAS5RcaG3p8d-23" edge="1">
          <mxGeometry relative="1" as="geometry" />
        </mxCell>
        <mxCell id="zh43RwkhiAS5RcaG3p8d-24" value="print(&quot;Время выполнения&quot; + str(end) + &quot;c\n&quot;)" style="rounded=0;whiteSpace=wrap;html=1;fontSize=14;" parent="1" vertex="1">
          <mxGeometry x="240" y="700" width="320" height="40" as="geometry" />
        </mxCell>
      </root>
    </mxGraphModel>
  </diagram>
</mxfile>
